<svg id="Layer_1" data-name="Layer 1" xmlns="http://www.w3.org/2000/svg" width="64" height="64" viewBox="0 0 64 64"><defs><style>.cls-1{fill:#95c11f;}.cls-2{fill:#fff;}</style></defs><title>benefits</title><rect class="cls-1" width="64" height="64"/><path class="cls-2" d="M37.65,8a18,18,0,1,1-18,18,18,18,0,0,1,18-18m0-2a20,20,0,1,0,20,20,20,20,0,0,0-20-20h0Z"/><rect class="cls-2" x="3.68" y="47.74" width="23.68" height="2.06" transform="translate(-29.94 25.26) rotate(-45)"/><path class="cls-2" d="M43.32,29.53a4.2,4.2,0,0,0-.43-0.2S42.07,28.92,42,26s0.74-3.46.74-3.46a4.13,4.13,0,1,0-6-3s0.2,1-2.32,2.57-3.58.89-3.58,0.89l-0.22-.13a4.13,4.13,0,1,0,.64,6.87s0.89-.7,3.53.72c2.09,1.12,2.4,2.22,2.44,2.63A4.13,4.13,0,1,0,43.32,29.53Zm-4.66.54c-0.33.12-1.29,0.25-3.29-.83-2.17-1.17-2.5-2.14-2.54-2.44a4.07,4.07,0,0,0,0-1.06v0s-0.18-.95,2.31-2.49c2.23-1.38,3.24-1.11,3.43-1l0.38,0.23a4.14,4.14,0,0,0,.77.31c0.31,0.29.87,1.12,0.93,3.3s-0.58,3-.94,3.34A4.1,4.1,0,0,0,38.66,30.07Z"/></svg>