<svg id="Layer_1" data-name="Layer 1" xmlns="http://www.w3.org/2000/svg" width="64" height="64" viewBox="0 0 64 64"><defs><style>.cls-1{fill:#95c11f;}.cls-2{fill:#fff;}</style></defs><title>benefits</title><rect class="cls-1" width="64" height="64"/><path class="cls-2" d="M31.91,11.62c12.38,0,22.58,7.85,22.74,17.47,0,9.73-10.12,17.65-22.56,17.65-2.06,0-5.78-.35-5.81-0.35l-0.58-.05-0.52.26-8.24,4.19,1.11-6.23,0.24-1.32-1.13-.72c-5-3.14-7.8-8-7.8-13.23,0-9.73,10.12-17.65,22.56-17.65m0-2c-13.46,0-24.56,8.73-24.56,19.65,0,6,3.27,11.46,8.73,14.92L14.26,54.38l11.82-6s3.82,0.36,6,.36c13.64,0,24.56-8.73,24.56-19.65C56.47,18.36,45.55,9.62,31.91,9.62h0Z"/><path class="cls-2" d="M38.26,32.36a4.2,4.2,0,0,0-.43-0.2s-0.82-.42-0.9-3.38,0.74-3.46.74-3.46a4.13,4.13,0,1,0-6-3s0.2,1-2.32,2.57-3.58.89-3.58,0.89l-0.22-.13a4.13,4.13,0,1,0,.64,6.87s0.89-.7,3.53.72c2.09,1.12,2.4,2.22,2.44,2.63A4.13,4.13,0,1,0,38.26,32.36Zm-4.66.54c-0.33.12-1.29,0.25-3.29-.83-2.17-1.17-2.5-2.14-2.54-2.44a4.07,4.07,0,0,0,0-1.06v0s-0.18-.95,2.31-2.49c2.23-1.38,3.24-1.11,3.43-1l0.38,0.23a4.14,4.14,0,0,0,.77.31c0.31,0.29.87,1.12,0.93,3.3s-0.58,3-.94,3.34A4.1,4.1,0,0,0,33.6,32.9Z"/></svg>