<?xml version="1.0" encoding="utf-8"?>
<!-- Generator: Adobe Illustrator 19.1.0, SVG Export Plug-In . SVG Version: 6.00 Build 0)  -->
<svg version="1.1" id="Layer_1" xmlns="http://www.w3.org/2000/svg" xmlns:xlink="http://www.w3.org/1999/xlink" x="0px" y="0px"
	 viewBox="-203 183.6 40 36" style="enable-background:new -203 183.6 40 36;" xml:space="preserve">
<style type="text/css">
	.st0{fill:#FFFFFF;}
</style>
<g>
	<path class="st0" d="M-185.7,200c0.1,0.2,0.1,0.5,0.1,0.7c0,0.3-0.1,0.5-0.1,0.7l2.9,1.7c0.3-0.3,0.7-0.5,1-0.7v-3.5
		c-0.4-0.1-0.7-0.4-1-0.7L-185.7,200z"/>
	<path class="st0" d="M-183,192.5c-5.5,0-10,3.5-10,8c0,2.4,1.3,4.6,3.5,6.1l-0.7,4.1l4.8-2.4l-0.1-0.1c0.8,0.1,1.6,0.2,2.5,0.2
		c5.5,0,10-3.5,10-8C-173.1,196-177.5,192.5-183,192.5z M-178.9,204.6c0,1.3-1,2.2-2.2,2.2c-1.3,0-2.2-1-2.2-2.2
		c0-0.1,0-0.3,0.1-0.4l-3-1.8c-0.4,0.4-0.9,0.5-1.5,0.5c-1.3,0-2.2-1-2.2-2.2c0-1.3,1-2.2,2.2-2.2c0.6,0,1,0.2,1.5,0.6l3.1-1.8
		c0-0.1-0.1-0.3-0.1-0.5c0-1.3,1-2.2,2.2-2.2c1.3,0,2.2,1,2.2,2.2c0,1.1-0.7,2-1.8,2.1v3.5C-179.6,202.6-178.9,203.5-178.9,204.6z"
		/>
</g>
</svg>
