<?xml version="1.0" encoding="utf-8"?>
<!-- Generator: Adobe Illustrator 19.1.0, SVG Export Plug-In . SVG Version: 6.00 Build 0)  -->
<svg version="1.1" id="Layer_1" xmlns="http://www.w3.org/2000/svg" xmlns:xlink="http://www.w3.org/1999/xlink" x="0px" y="0px"
	 viewBox="0 0 20 20" style="enable-background:new 0 0 20 20;" xml:space="preserve">
<style type="text/css">
	.st0{fill-rule:evenodd;clip-rule:evenodd;fill:#FFFFFF;}
</style>
<path class="st0" d="M9-4.3c0.2,0,0.4-0.1,0.4-0.2v-0.7c0-0.1-0.2-0.2-0.4-0.2l-2.5,0C6.4-5.3,6.3-5.2,6.3-5v9.5
	c0,0.1,0.1,0.3,0.2,0.3h0.2c0,0,0,0,0.1,0H9c0.2,0,0.4-0.1,0.4-0.2V3.9c0-0.1-0.2-0.2-0.4-0.2H7.3v-8H9z"/>
<path class="st0" d="M23.7,3.7c-0.2,0-0.4,0.1-0.4,0.2v0.7c0,0.1,0.2,0.2,0.4,0.2l2.5,0c0.1,0,0.2-0.1,0.2-0.3V-5
	c0-0.1-0.1-0.3-0.2-0.3H26c0,0,0,0-0.1,0h-2.3c-0.2,0-0.4,0.1-0.4,0.2v0.7c0,0.1,0.2,0.2,0.4,0.2h1.7v8H23.7z"/>
<path class="st0" d="M13.3,2c0-0.2-0.1-0.3-0.3-0.3h-1.3c-0.2,0-0.3,0.1-0.3,0.3v1.3c0,0.2,0.1,0.3,0.3,0.3H13
	c0.2,0,0.3-0.1,0.3-0.3V2z"/>
<path class="st0" d="M17.3,2c0-0.2-0.1-0.3-0.3-0.3h-1.3c-0.2,0-0.3,0.1-0.3,0.3v1.3c0,0.2,0.1,0.3,0.3,0.3H17
	c0.2,0,0.3-0.1,0.3-0.3V2z"/>
<path class="st0" d="M21.3,2c0-0.2-0.1-0.3-0.3-0.3h-1.3c-0.2,0-0.3,0.1-0.3,0.3v1.3c0,0.2,0.1,0.3,0.3,0.3H21
	c0.2,0,0.3-0.1,0.3-0.3V2z"/>
</svg>
