<?xml version="1.0" encoding="utf-8"?>
<!-- Generator: Adobe Illustrator 19.0.1, SVG Export Plug-In . SVG Version: 6.00 Build 0)  -->
<svg version="1.1" id="Layer_1" xmlns="http://www.w3.org/2000/svg" xmlns:xlink="http://www.w3.org/1999/xlink" x="0px" y="0px"
	 viewBox="-7 0 32.8 20" style="enable-background:new -7 0 32.8 20;" xml:space="preserve">
<style type="text/css">
	.st0{fill:#FFFFFF;}
</style>
<path class="st0" d="M4.6,18.3L-3.8,10l8.3-8.3c0.4-0.4,0.4-1,0-1.4s-1-0.4-1.4,0l-9,9c-0.4,0.4-0.4,1,0,1.4l0,0l0,0l9,9
	c0.4,0.4,1,0.4,1.4,0S5,18.7,4.6,18.3z"/>
<path class="st0" d="M15,1.7l8.4,8.3l-8.3,8.3c-0.4,0.4-0.4,1,0,1.4c0.4,0.4,1,0.4,1.4,0l9-9c0.4-0.4,0.4-1,0-1.4l0,0l0,0l-9-9
	c-0.4-0.4-1-0.4-1.4,0C14.7,0.7,14.6,1.3,15,1.7z"/>
</svg>
