<?xml version="1.0" encoding="utf-8"?>
<!-- Generator: Adobe Illustrator 19.0.0, SVG Export Plug-In . SVG Version: 6.00 Build 0)  -->
<svg version="1.1" id="Layer_1" xmlns="http://www.w3.org/2000/svg" xmlns:xlink="http://www.w3.org/1999/xlink" x="0px" y="0px"
	 viewBox="0 0 20 20" style="enable-background:new 0 0 20 20;" xml:space="preserve">
<style type="text/css">
	.st0{fill:#FFFFFF;}
</style>
<path id="XMLID_4_" class="st0" d="M11.9,10l7.8-7.8c0.4-0.4,0.4-1.1,0-1.5l-0.4-0.4c-0.4-0.4-1.1-0.4-1.5,0L10,8.1L2.2,0.3
	c-0.4-0.4-1.1-0.4-1.5,0L0.3,0.7c-0.4,0.4-0.4,1.1,0,1.5L8.1,10l-7.8,7.8c-0.4,0.4-0.4,1.1,0,1.5l0.4,0.4c0.4,0.4,1.1,0.4,1.5,0
	l7.8-7.8l7.8,7.8c0.4,0.4,1.1,0.4,1.5,0l0.4-0.4c0.4-0.4,0.4-1.1,0-1.5L11.9,10z"/>
</svg>
