<?xml version="1.0" encoding="utf-8"?>
<!-- Generator: Adobe Illustrator 19.1.0, SVG Export Plug-In . SVG Version: 6.00 Build 0)  -->
<svg version="1.1" id="Layer_1" xmlns="http://www.w3.org/2000/svg" xmlns:xlink="http://www.w3.org/1999/xlink" x="0px" y="0px"
	 viewBox="0 0 20 20" style="enable-background:new 0 0 20 20;" xml:space="preserve">
<style type="text/css">
	.st0{fill-rule:evenodd;clip-rule:evenodd;fill:#FFFFFF;}
</style>
<g id="list_1_">
	<path class="st0" d="M24.3,5.3c0,0.2-0.1,0.3-0.3,0.3H12c-0.2,0-0.3-0.1-0.3-0.3V4c0-0.2,0.1-0.3,0.3-0.3h12c0.2,0,0.3,0.1,0.3,0.3
		V5.3z M10.3,4c0-0.2-0.1-0.3-0.3-0.3H8.7C8.5,3.7,8.3,3.8,8.3,4v1.3c0,0.2,0.1,0.3,0.3,0.3H10c0.2,0,0.3-0.1,0.3-0.3V4z M24.3-1
		c0-0.2-0.1-0.3-0.3-0.3H12c-0.2,0-0.3,0.1-0.3,0.3v1.3c0,0.2,0.1,0.3,0.3,0.3h12c0.2,0,0.3-0.1,0.3-0.3V-1z M10.3-1
		c0-0.2-0.1-0.3-0.3-0.3H8.7C8.5-1.3,8.3-1.2,8.3-1v1.3c0,0.2,0.1,0.3,0.3,0.3H10c0.2,0,0.3-0.1,0.3-0.3V-1z M24.3-6
		c0-0.2-0.1-0.3-0.3-0.3H12c-0.2,0-0.3,0.1-0.3,0.3v1.3c0,0.2,0.1,0.3,0.3,0.3h12c0.2,0,0.3-0.1,0.3-0.3V-6z M10.3-6
		c0-0.2-0.1-0.3-0.3-0.3H8.7C8.5-6.3,8.3-6.2,8.3-6v1.3c0,0.2,0.1,0.3,0.3,0.3H10c0.2,0,0.3-0.1,0.3-0.3V-6z"/>
</g>
</svg>
