<?xml version="1.0" encoding="utf-8"?>
<!-- Generator: Adobe Illustrator 19.0.0, SVG Export Plug-In . SVG Version: 6.00 Build 0)  -->
<svg version="1.1" id="Layer_1" xmlns="http://www.w3.org/2000/svg" xmlns:xlink="http://www.w3.org/1999/xlink" x="0px" y="0px"
	 viewBox="0 0 20 20" style="enable-background:new 0 0 20 20;" xml:space="preserve">
<style type="text/css">
	.st0{fill:#FFFFFF;}
</style>
<path class="st0" d="M10,20L10,20c-0.6,0-1-0.4-1-1V1c0-0.5,0.4-1,1-1h0c0.5,0,1,0.4,1,1v18C11,19.6,10.6,20,10,20z"/>
<path class="st0" d="M0,10L0,10c0-0.6,0.4-1,1-1h18c0.5,0,1,0.4,1,1v0c0,0.5-0.4,1-1,1H1C0.4,11,0,10.6,0,10z"/>
</svg>
